<?xml version="1.0" encoding="utf-8"?>
<!-- Generator: Adobe Illustrator 25.0.0, SVG Export Plug-In . SVG Version: 6.00 Build 0)  -->
<svg version="1.1" id="Layer_1" xmlns="http://www.w3.org/2000/svg" xmlns:xlink="http://www.w3.org/1999/xlink" x="0px" y="0px"
	 viewBox="0 0 402.5 96.4" style="enable-background:new 0 0 402.5 96.4;" xml:space="preserve">
<style type="text/css">
	.st0{fill:#FBBB1A;}
	.st1{fill:#0B4067;}
	.st2{fill:#EC6237;}
	.st3{fill:#79B946;}
	.st4{fill:#E94C4C;}
	.st5{fill:#EE7069;stroke:#0B4067;stroke-width:2;stroke-linecap:round;stroke-linejoin:round;}
	.st6{fill:#E62552;}
	.st7{fill:#EE7069;}
	.st8{fill:#020203;}
</style>
<g>
	<g id="_331_shopping_cart_outline">
		<rect x="36.8" y="19.3" class="st0" width="47.8" height="52.3"/>
		<path class="st1" d="M84.6,72H36.8c-0.3,0-0.5-0.2-0.5-0.5V19.3c0-0.3,0.2-0.5,0.5-0.5h47.8c0.3,0,0.5,0.2,0.5,0.5v52.3
			C85,71.8,84.8,72,84.6,72z M37.2,71.1h46.9V19.8H37.2V71.1z"/>
		<rect x="27.5" y="27.2" class="st2" width="39.2" height="49.2"/>
		<path class="st1" d="M66.7,76.9H27.5c-0.3,0-0.5-0.2-0.5-0.5V27.2c0-0.3,0.2-0.5,0.5-0.5h39.2c0.3,0,0.5,0.2,0.5,0.5v49.2
			C67.1,76.6,66.9,76.9,66.7,76.9z M28,75.9h38.3V27.7H27.9L28,75.9z"/>
		<rect x="45.2" y="35.9" class="st3" width="33.5" height="42"/>
		<path class="st1" d="M78.8,78.4H45.2c-0.3,0-0.5-0.2-0.5-0.5v-42c0-0.3,0.2-0.5,0.5-0.5h33.6c0.3,0,0.5,0.2,0.5,0.5v42
			C79.2,78.2,79,78.4,78.8,78.4L78.8,78.4z M45.7,77.4h32.6V36.4H45.7V77.4z"/>
		<path class="st4" d="M19.6,42.2h72.8c2.2,0,4,1.8,4,4v0c0,2.2-1.8,4-4,4H19.6c-2.2,0-4-1.8-4-4v0C15.6,44,17.4,42.2,19.6,42.2z"/>
		<path class="st1" d="M92.3,50.6H19.6c-2.4,0-4.4-2-4.4-4.4c0-2.4,2-4.4,4.4-4.4h72.8c2.4,0,4.4,2,4.4,4.4
			C96.8,48.6,94.8,50.6,92.3,50.6L92.3,50.6z M19.6,42.7c-1.9,0-3.5,1.6-3.5,3.5s1.6,3.5,3.5,3.5h72.8c1.9,0,3.5-1.6,3.5-3.5
			s-1.6-3.5-3.5-3.5l0,0H19.6z"/>
		<path class="st5" d="M20.4,50.1L28,78.9c0.5,1.9,2.5,3.3,4.9,3.3h46c2.4,0,4.5-1.4,4.9-3.3l7.6-28.8H20.4z M40.6,74.3
			c0,1.2-1.2,2.1-2.7,2.1c-1.5,0-2.7-0.9-2.7-2.1V57.7c0-1.2,1.2-2.1,2.7-2.1c0.7,0,1.3,0.2,1.9,0.6c0.5,0.3,0.8,0.9,0.8,1.5V74.3z
			 M52.6,74.3c0,1.2-1.2,2.1-2.7,2.1c-1.5,0-2.7-0.9-2.7-2.1V57.7c0-1.2,1.2-2.1,2.7-2.1c0.7,0,1.3,0.2,1.9,0.6
			c0.5,0.3,0.8,0.9,0.8,1.5L52.6,74.3z M64.7,74.3c0,1.2-1.2,2.1-2.7,2.1c-1.5,0-2.7-0.9-2.7-2.1V57.7c0-1.2,1.2-2.1,2.7-2.1
			c0.7,0,1.3,0.2,1.9,0.6c0.5,0.3,0.8,0.9,0.8,1.5L64.7,74.3z M76.7,74.3c0,1.2-1.2,2.1-2.7,2.1c-1.5,0-2.7-0.9-2.7-2.1V57.7
			c0-1.2,1.2-2.1,2.7-2.1c0.7,0,1.3,0.2,1.9,0.6c0.5,0.3,0.8,0.9,0.8,1.5V74.3z"/>
		<circle class="st6" cx="51.3" cy="8.6" r="4.3"/>
		<path class="st1" d="M51.3,13.4c-2.3,0-4.3-1.7-4.7-4c-0.4-2.6,1.3-5.1,3.9-5.5c2.6-0.4,5.1,1.3,5.5,3.9c0.4,2.6-1.3,5.1-3.9,5.5
			c0,0,0,0,0,0C51.8,13.4,51.6,13.4,51.3,13.4z M51.3,4.7c-2.1,0-3.9,1.7-3.9,3.9c0,0.2,0,0.4,0.1,0.6c0.4,2.1,2.4,3.5,4.5,3.1
			c2-0.4,3.4-2.3,3.1-4.4C54.8,6.1,53.2,4.7,51.3,4.7L51.3,4.7z"/>
		<path class="st7" d="M29.9,47.2c-1.1,0.5-2.5,0-3-1.1c-0.3-0.7-0.3-1.4,0.1-2.1L49.5,7.2c0.6-1.1,2-1.4,3.1-0.8
			c1.1,0.6,1.4,2,0.8,3.1L30.9,46.3C30.6,46.7,30.3,47,29.9,47.2z"/>
		<path class="st1" d="M28.9,47.8c-1.5,0-2.7-1.2-2.7-2.7c0-0.5,0.1-1,0.4-1.4L49.1,7c0.8-1.3,2.4-1.7,3.7-0.9
			c1.3,0.8,1.7,2.4,0.9,3.7L31.3,46.5C31,47,30.5,47.4,30,47.6l0,0C29.7,47.7,29.3,47.8,28.9,47.8z M29.9,47.2L29.9,47.2z M51.4,6.6
			c-0.1,0-0.3,0-0.4,0.1c-0.5,0.1-0.9,0.4-1.1,0.8L27.4,44.2c-0.5,0.8-0.2,1.9,0.6,2.4c0.5,0.3,1.1,0.3,1.6,0.1
			c0.3-0.1,0.6-0.4,0.8-0.7L52.9,9.3c0.5-0.8,0.2-1.9-0.6-2.4C52,6.7,51.7,6.6,51.4,6.6L51.4,6.6z"/>
		<circle class="st6" cx="60.6" cy="8.6" r="4.3"/>
		<path class="st1" d="M60.6,13.4c-0.3,0-0.5,0-0.8-0.1c-2.6-0.4-4.3-2.9-3.9-5.5s2.9-4.3,5.5-3.9c2.6,0.4,4.3,2.9,3.9,5.5
			C64.9,11.7,62.9,13.4,60.6,13.4z M60.6,4.7c-2.1,0-3.9,1.7-3.9,3.8c0,1.9,1.4,3.5,3.2,3.8c2.1,0.4,4.1-1.1,4.5-3.2
			c0.4-2.1-1.1-4.1-3.2-4.5C61.1,4.7,60.8,4.7,60.6,4.7L60.6,4.7z"/>
		<path class="st7" d="M82.1,47.2c1.1,0.5,2.5,0,3-1.1c0.3-0.7,0.3-1.4-0.1-2.1L62.4,7.2c-0.6-1.1-2-1.4-3.1-0.8
			c-1.1,0.6-1.4,2-0.8,3.1l22.5,36.7C81.3,46.7,81.7,47,82.1,47.2z"/>
		<path class="st1" d="M83,47.8c-0.4,0-0.8-0.1-1.1-0.2l0,0c-0.5-0.2-0.9-0.6-1.2-1.1L58.2,9.8c-0.8-1.3-0.4-3,0.9-3.7
			c1.3-0.8,3-0.4,3.7,0.9c0,0,0,0,0,0l22.5,36.7c0.8,1.3,0.4,2.9-0.9,3.7C84,47.7,83.5,47.8,83,47.8z M82.3,46.7
			c0.9,0.4,2,0,2.3-0.9c0.2-0.5,0.2-1.1-0.1-1.6L62,7.5c-0.5-0.8-1.6-1.1-2.4-0.6c-0.8,0.5-1.1,1.6-0.6,2.4L81.5,46
			C81.7,46.3,81.9,46.6,82.3,46.7L82.3,46.7z"/>
		<path class="st1" d="M81.6,23h-6.3c-0.3,0-0.5-0.2-0.5-0.5s0.2-0.5,0.5-0.5h6.3c0.3,0,0.5,0.2,0.5,0.5S81.9,23,81.6,23z"/>
		<path class="st1" d="M63.4,30.8h-7.1c-0.3,0-0.5-0.2-0.5-0.5s0.2-0.5,0.5-0.5h7.1c0.3,0,0.5,0.2,0.5,0.5S63.6,30.8,63.4,30.8z"/>
		<path class="st1" d="M53.7,39.2h-3.7c-0.3,0-0.5-0.2-0.5-0.5s0.2-0.5,0.5-0.5h3.7c0.3,0,0.5,0.2,0.5,0.5S53.9,39.2,53.7,39.2z"/>
	</g>
	<g>
		<path class="st8" d="M120.4,69.3V33.9h4.4v31.3h23.1v4.1H120.4z"/>
		<path class="st8" d="M152.6,69.3V41.9h4.4v27.4H152.6z"/>
		<path class="st8" d="M166.5,69.3V41.9h2.2l17.4,19.2V41.9h4.2v27.3H188l-17.4-19.1v19.1H166.5z"/>
		<path class="st8" d="M199.6,69.3V41.9h25.6v4h-21.4v6.8h14v3.9h-14v8.6h22.5v3.9H199.6z"/>
		<path class="st8" d="M229.9,64l2.6-3.8c2.5,1.9,5.1,3.4,7.8,4.5c2.7,1,5.4,1.5,8,1.5c3.3,0,5.9-0.7,8-2.1c2-1.4,3.1-3.2,3.1-5.3
			c0-1.7-0.7-3.2-2.2-4.3c-1.5-1.1-3.5-1.8-6.1-2c-0.6-0.1-1.5-0.1-2.7-0.2c-5.8-0.4-9.8-1.1-11.9-2c-1.6-0.8-2.9-1.8-3.7-3.1
			c-0.9-1.2-1.3-2.7-1.3-4.2c0-2.8,1.3-5.2,3.8-7c2.5-1.8,5.8-2.8,9.9-2.8c2.9,0,5.9,0.5,8.7,1.5c2.9,1,5.6,2.4,8.2,4.3l-2.6,3.7
			c-2.2-1.8-4.5-3.1-6.9-4c-2.4-0.9-4.9-1.3-7.4-1.3c-2.7,0-4.9,0.5-6.6,1.6c-1.7,1-2.6,2.3-2.6,3.9c0,0.6,0.1,1.2,0.4,1.7
			s0.7,1,1.3,1.4c1.5,1.1,4.6,1.8,9.4,2.1c2.2,0.1,3.9,0.3,5.2,0.4c3.6,0.4,6.4,1.6,8.5,3.5c2.1,1.9,3.1,4.2,3.1,7
			c0,3.3-1.4,6-4.3,8.2s-6.6,3.2-11.3,3.2c-3.5,0-6.8-0.5-9.8-1.5C235.5,67.7,232.6,66.1,229.9,64z"/>
		<path class="st8" d="M276,56.6v12.7h-4.3V41.9h4.3v10.6h19.2V41.9h4.3v27.3h-4.3V56.6H276z"/>
		<path class="st8" d="M323.1,70.2c-4.9,0-8.9-1.4-12-4.1c-3.1-2.8-4.7-6.2-4.7-10.4c0-4.2,1.6-7.6,4.7-10.4c3.1-2.7,7.1-4.1,12-4.1
			c4.9,0,9,1.4,12.1,4.1c3.1,2.7,4.7,6.2,4.7,10.4c0,4.2-1.6,7.6-4.7,10.4C332.1,68.8,328,70.2,323.1,70.2z M323.1,66.1
			c3.7,0,6.6-1,8.9-3s3.5-4.5,3.5-7.5c0-3-1.2-5.5-3.5-7.5c-2.3-2-5.3-3-8.9-3c-3.6,0-6.6,1-8.9,3c-2.3,2-3.4,4.5-3.4,7.5
			s1.1,5.6,3.4,7.5C316.5,65.2,319.5,66.1,323.1,66.1z"/>
		<path class="st8" d="M351.2,57.3v11.9h-4.3V41.9h19.9c2.8,0,5,0.7,6.6,2c1.6,1.3,2.4,3.2,2.4,5.6c0,2.3-0.8,4.2-2.3,5.6
			c-1.6,1.5-3.6,2.2-6.1,2.2H351.2z M351.2,53.3h15.6c1.5,0,2.6-0.3,3.3-1s1.2-1.6,1.2-2.8c0-1.2-0.4-2.1-1.1-2.7
			c-0.7-0.6-1.8-1-3.2-1h-15.8V53.3z"/>
	</g>
</g>
</svg>
