<?xml version="1.0" encoding="utf-8"?>
<!-- Generator: Adobe Illustrator 25.0.0, SVG Export Plug-In . SVG Version: 6.00 Build 0)  -->
<svg version="1.1" id="Layer_1" xmlns="http://www.w3.org/2000/svg" xmlns:xlink="http://www.w3.org/1999/xlink" x="0px" y="0px"
	 viewBox="0 0 402.5 96.4" style="enable-background:new 0 0 402.5 96.4;" xml:space="preserve">
<style type="text/css">
	.st0{fill:#E94C4C;}
	.st1{fill:#EE7069;}
	.st2{fill:#E62552;}
	.st3{fill:#020203;}
</style>
<g>
	<g id="_331_shopping_cart_outline">
		<path class="st0" d="M6.3,47.4h80.6c2.4,0,4.4,2,4.4,4.5l0,0c0,2.5-1.9,4.5-4.4,4.5H6.3c-2.4,0-4.4-2-4.4-4.5l0,0
			C1.9,49.4,3.9,47.4,6.3,47.4z"/>
		<path class="st0" d="M86.9,56.9H6.3c-2.8,0-4.9-2.3-4.9-5c0-2.8,2.2-5,4.9-5h80.6c2.8,0,4.9,2.3,4.9,5S89.7,56.9,86.9,56.9
			L86.9,56.9z M6.3,47.8c-2.1,0-3.9,1.7-3.9,4c0,2.2,1.7,4,3.9,4h80.6c2.1,0,3.9-1.7,3.9-4c0-2.2-1.7-4-3.9-4l0,0H6.3z"/>
		<path class="st1" d="M7.3,56.4l8.4,32.8c0.5,2.2,2.9,3.8,5.5,3.8h50.9c2.7,0,5-1.6,5.5-3.8L86,56.4C86,56.4,7.3,56.4,7.3,56.4z
			 M29.5,84c0,1.3-1.4,2.4-3,2.4c-1.6,0-3-1.1-3-2.4V65c0-1.3,1.3-2.4,3-2.4c0.7,0,1.5,0.2,2.1,0.7c0.5,0.4,0.8,1,0.8,1.6V84z
			 M42.9,84c0,1.3-1.3,2.4-3,2.4c-1.6,0-3-1.1-3-2.4V65c0-1.3,1.4-2.4,3-2.4c0.7,0,1.5,0.2,2,0.7c0.5,0.4,0.8,1,0.8,1.6L42.9,84z
			 M56.3,84c0,1.3-1.4,2.4-3,2.4s-3-1.1-3-2.4V65c0-1.3,1.3-2.4,3-2.4c0.7,0,1.5,0.2,2.1,0.7c0.5,0.4,0.8,1,0.8,1.6V84z M69.6,84
			c0,1.3-1.3,2.4-3,2.4c-1.6,0-3-1.1-3-2.4V65c0-1.3,1.4-2.4,3-2.4c0.7,0,1.5,0.2,2.1,0.7c0.5,0.4,0.8,1,0.8,1.6V84z"/>
		<ellipse class="st2" cx="41.4" cy="9" rx="4.8" ry="4.9"/>
		<path class="st1" d="M17.7,53c-1.3,0.5-2.8,0-3.3-1.3C14,50.9,14,50,14.5,49.3l25-41.8c0.6-1.2,2.2-1.6,3.4-0.9s1.6,2.3,0.8,3.5
			L18.8,52C18.5,52.4,18.2,52.8,17.7,53z"/>
		<path class="st0" d="M16.7,53.7c-1.7,0-3-1.4-3-3.1c0-0.5,0.1-1.1,0.4-1.6L39,7.1c0.8-1.4,2.8-2,4.1-1.1s1.9,2.8,1.1,4.3
			L19.2,52.2c-0.3,0.5-0.7,1-1.4,1.2l0,0C17.5,53.6,17.1,53.7,16.7,53.7z M17.7,53L17.7,53z M41.6,6.7c-0.2,0-0.3,0-0.4,0.1
			c-0.5,0.1-1,0.4-1.2,0.9L15,49.6c-0.5,1-0.3,2.2,0.6,2.7c0.5,0.3,1.3,0.4,1.8,0.1c0.3-0.2,0.6-0.4,0.8-0.8L43.2,9.8
			c0.5-1,0.2-2.2-0.6-2.7C42.3,6.8,41.9,6.7,41.6,6.7L41.6,6.7z"/>
		<ellipse class="st2" cx="51.8" cy="9" rx="4.8" ry="4.9"/>
		<path class="st1" d="M75.6,53c1.3,0.5,2.8,0,3.3-1.3c0.3-0.8,0.3-1.6-0.1-2.4L53.8,7.4c-0.7-1.2-2.2-1.6-3.5-0.9
			c-1.2,0.8-1.6,2.3-0.8,3.5L74.4,52C74.7,52.4,75.2,52.8,75.6,53z"/>
		<path class="st0" d="M76.5,53.7c-0.4,0-0.8-0.1-1.2-0.2l0,0c-0.5-0.2-1.1-0.7-1.4-1.2L49.1,10.4C48.2,9,48.6,7,50.1,6.1
			c1.4-0.9,3.3-0.4,4.1,1.1l0,0l24.9,41.9c0.8,1.4,0.4,3.4-1,4.3C77.7,53.6,77.2,53.7,76.5,53.7z M75.8,52.5c1,0.4,2.1,0,2.7-1
			c0.2-0.7,0.2-1.3-0.1-1.9l-25-42c-0.5-1-1.8-1.2-2.7-0.7c-1,0.5-1.3,1.9-0.6,2.8l24.9,41.8C75.1,52.1,75.4,52.3,75.8,52.5
			L75.8,52.5z"/>
	</g>
	<g>
		<path class="st3" d="M118.1,78.2V37.9h4.9v35.7h25.6v4.6H118.1z"/>
		<path class="st3" d="M153.8,78.2V47h4.8v31.2H153.8z"/>
		<path class="st3" d="M169.1,78.2V47.1h2.4L190.8,69V47.1h4.7v31.2H193l-19.2-21.8v21.8h-4.8V78.2z"/>
		<path class="st3" d="M205.9,78.2V47.1h28.4v4.6h-23.8v7.8H226v4.5h-15.5v9.8h24.9v4.5C235.5,78.2,205.9,78.2,205.9,78.2z"/>
		<path class="st3" d="M239.3,72.2l2.9-4.4c2.8,2.2,5.6,3.9,8.6,5c3,1.2,5.9,1.7,8.9,1.7c3.6,0,6.6-0.8,8.8-2.4
			c2.2-1.5,3.4-3.6,3.4-6.1c0-2-0.8-3.6-2.4-4.9c-1.6-1.3-3.8-2.1-6.7-2.3c-0.6-0.1-1.7-0.1-3-0.2c-6.5-0.4-10.8-1.2-13.2-2.3
			c-1.8-0.9-3.2-2.1-4.1-3.5c-1-1.4-1.4-3.1-1.4-4.8c0-3.3,1.4-5.9,4.2-8c2.9-2.1,6.5-3.2,10.9-3.2c3.3,0,6.5,0.5,9.7,1.6
			c3.2,1.1,6.2,2.7,9,4.9l-2.9,4.1c-2.4-2-5-3.5-7.6-4.5c-2.7-1-5.4-1.5-8.2-1.5c-3,0-5.4,0.5-7.3,1.7c-1.9,1.2-2.9,2.6-2.9,4.5
			c0,0.7,0.1,1.3,0.4,2s0.7,1.1,1.4,1.6c1.6,1.2,5.1,2.1,10.4,2.4c2.4,0.1,4.4,0.3,5.7,0.4c3.9,0.4,7.1,1.7,9.4,3.9
			c2.3,2.2,3.5,4.8,3.5,8c0,3.8-1.6,6.9-4.8,9.3s-7.3,3.6-12.5,3.6c-3.9,0-7.5-0.5-10.8-1.7C245.6,76.3,242.4,74.6,239.3,72.2z"/>
		<path class="st3" d="M290.4,63.8v14.5h-4.8V47.1h4.8v12.1h21.3V47.1h4.7v31.2h-4.7V63.8H290.4z"/>
		<path class="st3" d="M342.7,79.2c-5.4,0-9.9-1.5-13.3-4.7c-3.4-3.2-5.2-7.1-5.2-11.8c0-4.8,1.7-8.7,5.2-11.8s8-4.7,13.4-4.7
			c5.5,0,10,1.5,13.4,4.6c3.5,3.1,5.2,7,5.2,11.8c0,4.8-1.7,8.7-5.2,11.9C352.6,77.6,348.2,79.2,342.7,79.2z M342.7,74.7
			c4,0,7.3-1.1,9.9-3.4c2.5-2.3,3.8-5.1,3.8-8.6c0-3.5-1.3-6.3-3.8-8.6c-2.5-2.3-5.8-3.4-9.9-3.4s-7.3,1.1-9.9,3.4
			c-2.5,2.3-3.8,5.1-3.8,8.6c0,3.5,1.3,6.3,3.8,8.6C335.4,73.6,338.7,74.7,342.7,74.7z"/>
		<path class="st3" d="M373.8,64.7v13.6h-4.8V47.1h22.1c3.1,0,5.5,0.8,7.3,2.3c1.7,1.5,2.7,3.7,2.7,6.4c0,2.6-0.8,4.7-2.5,6.4
			c-1.7,1.6-4,2.5-6.8,2.5h-17.9V64.7z M373.8,60.1h17.3c1.6,0,2.9-0.3,3.7-1.1c0.8-0.8,1.3-1.7,1.3-3.2c0-1.3-0.4-2.4-1.3-3.1
			c-0.8-0.8-2-1.1-3.5-1.1h-17.5V60.1z"/>
	</g>
</g>
</svg>
