<?xml version="1.0" encoding="utf-8"?>
<!-- Generator: Adobe Illustrator 25.0.0, SVG Export Plug-In . SVG Version: 6.00 Build 0)  -->
<svg version="1.1" id="Layer_1" xmlns="http://www.w3.org/2000/svg" xmlns:xlink="http://www.w3.org/1999/xlink" x="0px" y="0px"
	 viewBox="0 0 209.8 96.4" style="enable-background:new 0 0 209.8 96.4;" xml:space="preserve">
<style type="text/css">
	.st0{fill:#E94D4D;}
	.st1{fill:#EE716B;}
	.st2{fill:#E72853;}
	.st3{fill:#030304;}
</style>
<g>
	<g id="_331_shopping_cart_outline">
		<path class="st0" d="M6.1,47.5h78.5c2.4,0,4.2,1.9,4.2,4.4l0,0c0,2.4-1.9,4.4-4.2,4.4H6.1c-2.4,0-4.2-1.9-4.2-4.4l0,0
			C1.9,49.5,3.8,47.5,6.1,47.5z"/>
		<path class="st0" d="M84.7,56.8H6.1c-2.7,0-4.8-2.2-4.8-4.9c0-2.8,2.2-4.9,4.8-4.9h78.5c2.7,0,4.8,2.2,4.8,4.9
			S87.3,56.8,84.7,56.8L84.7,56.8z M6.1,48c-2.1,0-3.8,1.7-3.8,3.9c0,2.1,1.7,3.9,3.8,3.9h78.5c2.1,0,3.8-1.7,3.8-3.9
			c0-2.1-1.7-3.9-3.8-3.9l0,0H6.1z"/>
		<path class="st1" d="M7.1,56.3l8.2,31.9c0.5,2.1,2.8,3.7,5.4,3.7h49.6c2.6,0,4.9-1.6,5.4-3.7l8.2-31.9
			C83.7,56.3,7.1,56.3,7.1,56.3z M28.8,83.2c0,1.3-1.3,2.3-2.9,2.3S23,84.4,23,83.2V64.7c0-1.3,1.2-2.3,2.9-2.3
			c0.7,0,1.4,0.2,2.1,0.6c0.5,0.4,0.8,1,0.8,1.6V83.2z M41.8,83.2c0,1.3-1.2,2.3-2.9,2.3c-1.5,0-2.9-1.1-2.9-2.3V64.7
			c0-1.3,1.3-2.3,2.9-2.3c0.7,0,1.4,0.2,2,0.6s0.8,1,0.8,1.6L41.8,83.2z M54.8,83.2c0,1.3-1.3,2.3-2.9,2.3c-1.5,0-2.9-1.1-2.9-2.3
			V64.7c0-1.3,1.2-2.3,2.9-2.3c0.7,0,1.4,0.2,2.1,0.6c0.5,0.4,0.8,1,0.8,1.6V83.2z M67.8,83.2c0,1.3-1.2,2.3-2.9,2.3
			c-1.5,0-2.9-1.1-2.9-2.3V64.7c0-1.3,1.3-2.3,2.9-2.3c0.7,0,1.4,0.2,2.1,0.6c0.5,0.4,0.8,1,0.8,1.6V83.2z"/>
		<ellipse class="st2" cx="40.3" cy="10.1" rx="4.6" ry="4.8"/>
		<path class="st1" d="M17.2,53c-1.2,0.5-2.7,0-3.2-1.3c-0.3-0.7-0.3-1.6,0.1-2.3L38.5,8.6c0.6-1.2,2.2-1.6,3.3-0.9
			c1.1,0.7,1.5,2.2,0.8,3.4L18.3,52C18,52.4,17.7,52.8,17.2,53z"/>
		<path class="st0" d="M16.3,53.7c-1.7,0-2.9-1.4-2.9-3c0-0.5,0.1-1.1,0.4-1.6L38,8.3c0.8-1.4,2.7-1.9,4-1.1s1.9,2.8,1,4.1
			L18.7,52.2c-0.3,0.5-0.7,1-1.3,1.2l0,0C17.1,53.6,16.7,53.7,16.3,53.7z M17.2,53L17.2,53z M40.5,7.9c-0.2,0-0.3,0-0.4,0.1
			c-0.5,0.1-0.9,0.4-1.1,0.9L14.6,49.7c-0.5,1-0.3,2.1,0.6,2.7c0.5,0.3,1.2,0.4,1.8,0.1c0.3-0.2,0.6-0.4,0.8-0.7L42.1,11
			c0.5-1,0.2-2.1-0.6-2.7C41.2,8,40.9,7.9,40.5,7.9L40.5,7.9z"/>
		<ellipse class="st2" cx="50.5" cy="10.1" rx="4.6" ry="4.8"/>
		<path class="st1" d="M73.6,53c1.2,0.5,2.7,0,3.2-1.3c0.3-0.7,0.3-1.6-0.1-2.3L52.4,8.6C51.7,7.5,50.3,7,49,7.8
			c-1.1,0.7-1.5,2.2-0.8,3.4L72.5,52C72.8,52.4,73.2,52.8,73.6,53z"/>
		<path class="st0" d="M74.5,53.7c-0.4,0-0.8-0.1-1.1-0.2l0,0c-0.5-0.2-1-0.6-1.3-1.2L47.8,11.5c-0.8-1.4-0.4-3.3,1-4.1
			c1.3-0.9,3.2-0.4,4,1.1l0,0l24.3,40.8c0.8,1.4,0.4,3.3-0.9,4.1C75.7,53.6,75.2,53.7,74.5,53.7z M73.8,52.5c0.9,0.4,2.1,0,2.6-1
			c0.2-0.6,0.2-1.3-0.1-1.8L51.9,8.8c-0.5-1-1.8-1.2-2.6-0.6c-0.9,0.5-1.2,1.8-0.6,2.8L73,51.7C73.1,52.1,73.4,52.3,73.8,52.5
			L73.8,52.5z"/>
	</g>
	<g>
		<path class="st3" d="M114.5,78.5V26.6h6.3v46h32.9v5.9H114.5z"/>
		<path class="st3" d="M159.8,70.8l3.7-5.6c3.6,2.8,7.2,5.1,11.1,6.5c3.8,1.5,7.7,2.2,11.5,2.2c4.6,0,8.5-1,11.3-3.1
			c2.9-2,4.4-4.6,4.4-7.9c0-2.5-1.1-4.6-3.1-6.3c-2-1.7-4.9-2.7-8.6-3c-0.8-0.1-2.2-0.1-3.8-0.3c-8.3-0.6-13.9-1.5-16.9-3
			c-2.3-1.1-4.1-2.7-5.3-4.5c-1.2-1.8-1.8-3.9-1.8-6.2c0-4.2,1.8-7.6,5.5-10.3c3.7-2.7,8.3-4.1,14.1-4.1c4.2,0,8.3,0.7,12.4,2.1
			c4.1,1.4,7.9,3.5,11.6,6.3l-3.7,5.3c-3.1-2.5-6.4-4.5-9.8-5.8c-3.4-1.3-7-2-10.5-2c-3.8,0-7,0.7-9.4,2.2c-2.5,1.5-3.7,3.4-3.7,5.8
			c0,0.8,0.1,1.7,0.5,2.5c0.4,0.8,1,1.4,1.8,2.1c2,1.5,6.6,2.7,13.4,3.1c3.1,0.1,5.6,0.4,7.4,0.6c5.1,0.6,9.2,2.2,12.2,5.1
			c3,2.8,4.5,6.2,4.5,10.3c0,4.9-2,8.9-6.1,11.9c-4.1,3.1-9.4,4.6-16.1,4.6c-5.1,0-9.7-0.7-13.9-2.2
			C167.9,76.2,163.8,73.9,159.8,70.8z"/>
	</g>
</g>
</svg>
